<svg xmlns:dc="http://purl.org/dc/elements/1.1/" xmlns:cc="http://creativecommons.org/ns#" xmlns:rdf="http://www.w3.org/1999/02/22-rdf-syntax-ns#" xmlns:svg="http://www.w3.org/2000/svg" xmlns="http://www.w3.org/2000/svg" xmlns:sodipodi="http://sodipodi.sourceforge.net/DTD/sodipodi-0.dtd" xmlns:inkscape="http://www.inkscape.org/namespaces/inkscape" version="1.1" id="Layer_1" x="0px" y="0px" viewBox="651.292 103.412 1000.1114 231.77726" enable-background="new 651.292 103.412 547.679 126.922" xml:space="preserve" inkscape:version="0.48.4 r9939" sodipodi:docname="Atari_Official_2012_Logo.svg"><metadata id="metadata31"><rdf:rdf><cc:work rdf:about=""><dc:format>image/svg+xml</dc:format><dc:type rdf:resource="http://purl.org/dc/dcmitype/StillImage"></dc:type><dc:title></dc:title></cc:work></rdf:rdf></metadata><defs id="defs29"></defs><sodipodi:namedview pagecolor="#ffffff" bordercolor="#666666" borderopacity="1" objecttolerance="10" gridtolerance="10" guidetolerance="10" inkscape:pageopacity="0" inkscape:pageshadow="2" inkscape:window-width="1920" inkscape:window-height="1019" id="namedview27" showgrid="false" fit-margin-top="0" fit-margin-left="0" fit-margin-right="0" fit-margin-bottom="0" inkscape:zoom="0.56291833" inkscape:cx="-221.41557" inkscape:cy="146.03881" inkscape:window-x="-9" inkscape:window-y="-9" inkscape:window-maximized="1" inkscape:current-layer="Layer_1"></sodipodi:namedview><g id="g3" transform="matrix(1.8260962,0,0,1.8260962,-539.85778,-85.426434)"><g id="g5"><path d="m 690.77,213.209 c 7.61,-6.484 14.447,-14.235 18.816,-23.327 2.678,-5.708 4.793,-11.627 5.85,-17.83 1.479,-8.949 2.043,-18.041 2.537,-27.132 0.281,-6.271 0.422,-12.544 0.422,-18.886 v -22.622 h -9.653 c 0,3.735 0,7.471 0,11.205 -0.282,11.065 -0.917,22.129 -2.608,33.052 -1.339,8.598 -3.241,17.195 -6.835,25.088 -3.103,6.906 -7.118,13.461 -12.192,19.028 -4.934,5.497 -10.782,10.078 -17.267,13.531 -5.496,2.889 -11.416,5.073 -17.547,5.99 v 18.957 c 5.074,-0.705 10.078,-1.973 14.94,-3.665 8.455,-2.958 16.701,-7.328 23.537,-13.389 z" id="path7" style="fill:#be185d" inkscape:connector-curvature="0"></path><path d="m 722.13,189.882 c 0,13.461 -0.069,26.992 0.071,40.452 5.849,-0.071 11.769,0 17.688,0 V 103.482 c -5.92,0 -11.84,0 -17.76,0 10e-4,28.753 10e-4,57.577 10e-4,86.4 z" id="path9" style="fill:#be185d" inkscape:connector-curvature="0"></path><path d="m 802.258,209.544 c -8.879,-2.889 -17.054,-7.752 -23.82,-14.236 -7.047,-6.695 -12.473,-15.081 -16.208,-24.031 -3.946,-9.303 -5.708,-19.31 -6.977,-29.247 -1.551,-12.826 -1.974,-25.722 -1.902,-38.619 h -9.585 v 20.79 c -0.071,12.262 0.353,24.524 1.41,36.716 0.563,5.638 1.198,11.346 2.678,16.843 1.479,5.497 3.664,10.783 6.483,15.787 3.594,6.342 8.387,11.98 13.741,16.984 3.243,2.959 6.625,5.849 10.359,8.245 5.075,3.313 10.643,5.92 16.421,7.893 4.862,1.621 9.797,2.96 14.87,3.594 0,-6.342 0,-12.614 0,-18.957 -2.466,-0.352 -5.003,-0.986 -7.47,-1.762 z" id="path11" style="fill:#be185d" inkscape:connector-curvature="0"></path><path d="m 976.773,124.576 v -19.091 h -70.455 v 19.091 c 8.637,0 17.273,0 25.909,0 v 105.606 h 18.637 V 124.576 c 8.636,0 17.273,0 25.909,0 l 0,0 z" id="path13" style="fill:#000000" inkscape:connector-curvature="0"></path><path d="m 1117.985,178.516 c 3.637,-2.727 7.879,-4.545 11.212,-7.576 6.516,-5.605 10,-13.939 10.606,-22.272 0.605,-8.333 0.605,-16.515 -3.182,-23.788 -5.455,-11.212 -17.273,-18.939 -29.849,-19.242 H 1084.5 c -1.97,0 -3.787,0.152 -5.605,0.758 -6.061,1.97 -10.606,8.03 -10.606,14.394 0,36.516 0,73.03 0,109.546 h 18.788 c 0,-33.939 0,-67.879 0,-101.818 0.151,-2.273 1.97,-4.091 4.242,-4.091 h 14.395 c 6.97,-0.304 13.484,5.151 15,11.818 1.212,5.151 1.363,11.061 -1.364,15.757 -3.636,6.364 -10.303,10.304 -16.97,12.879 -3.484,1.363 -6.666,3.939 -8.03,7.576 -1.666,4.849 -0.909,10.151 1.97,14.242 9.546,14.395 19.091,28.939 28.788,43.485 h 22.121 c -10,-15 -20.303,-30 -30.151,-45.151 -1.214,-2.123 -1.062,-5.002 0.907,-6.517 l 0,0 z" id="path15" style="fill:#000000" inkscape:connector-curvature="0"></path><path d="m 1014.501,105.789 c -5.909,-1.516 -12.122,0.757 -15.759,5.757 -2.121,2.879 -2.575,6.515 -3.636,9.696 -10.606,36.364 -21.061,72.729 -31.667,108.94 h 19.395 c 3.03,-10.455 6.061,-20.909 9.091,-31.364 12.575,0 25.151,0 37.727,0 3.031,10.455 6.061,20.909 9.092,31.364 6.515,0 13.03,0 19.545,0 -11.061,-37.879 -21.969,-75.758 -33.03,-113.637 -1.364,-4.999 -5.455,-9.545 -10.758,-10.756 l 0,0 z m -17.273,75.303 c 4.546,-15.758 9.091,-31.516 13.637,-47.273 4.545,15.758 9.091,31.516 13.637,47.273 h -27.274 z" id="path19" style="fill:#000000" inkscape:connector-curvature="0"></path><path d="m 882.682,108.667 c -5.908,-5.151 -15.908,-4.091 -20.908,2.121 -2.728,3.03 -3.182,7.272 -4.395,11.062 -10.605,36.211 -21.061,72.271 -31.515,108.484 h 19.394 c 3.03,-10.455 6.061,-20.909 9.242,-31.364 h 37.728 c 3.03,10.455 6.061,20.909 9.091,31.364 h 19.546 c -11.061,-37.879 -22.122,-75.758 -33.183,-113.637 -0.757,-3.181 -2.576,-5.908 -5,-8.03 l 0,0 z m -23.03,72.425 c 4.545,-15.758 9.09,-31.516 13.787,-47.121 4.546,15.757 9.092,31.515 13.637,47.121 -9.242,0 -18.334,0.15 -27.424,0 l 0,0 z" id="path21" style="fill:#000000" inkscape:connector-curvature="0"></path><path d="m 1156.925,105.637 v 124.697 h 19.697 c 0,-41.516 0,-83.03 0,-124.697 h -19.697 z" id="path25" style="fill:#000000" inkscape:connector-curvature="0"></path></g></g></svg>