<svg width="293" height="290" fill="none" xmlns="http://www.w3.org/2000/svg"><path d="M97.191 248.394c-21.424-10.557-39.122-27.013-50.3-47.505-18.94-13.351-33.533-32.602-40.985-54.957C2.491 156.799.628 168.597.628 180.396c0 27.634 10.246 52.473 27.013 71.724 5.9 6.52 12.42 12.73 19.56 17.698C65.212 282.548 87.256 290 111.164 290c12.73 0 24.84-2.173 36.328-6.21-20.182-6.831-37.57-19.25-50.3-35.396Z" fill="#815281"/><path d="M196.858 247.773c.311 0 .311 0 0 0-15.214 7.452-31.98 11.488-49.989 11.799-18.008 0-34.775-4.037-49.99-11.178h-.31c13.041 16.146 30.118 28.565 50.3 35.396 20.182-7.141 37.259-19.871 49.989-36.017Z" fill="#8075B2"/><path d="M97.191 248.394c15.215 7.141 31.981 11.178 49.99 11.178 18.008 0 34.775-4.347 49.989-11.799-17.698-4.036-34.465-10.246-49.989-18.629a211.193 211.193 0 0 1-49.99 19.25Z" fill="#A2BDDB"/><path d="M287.213 144.379c3.726 10.867 5.589 22.356 5.589 34.465 0 27.634-9.626 52.783-26.392 72.034-5.589 6.831-12.109 12.73-19.251 18.009-18.008 13.04-40.053 20.803-63.651 20.803-12.73 0-24.839-2.174-36.327-5.9 19.871-7.141 36.948-19.561 49.678-36.017 21.114-10.557 38.502-27.323 49.679-47.816 18.94-13.972 33.223-33.223 40.675-55.578Z" fill="#56B6B4"/><path d="M246.538 89.422c9.004 16.146 13.972 34.775 14.283 54.647 0 20.182-4.968 39.122-13.972 55.578 18.629-13.662 32.912-32.912 40.364-55.578-7.452-22.045-22.045-41.296-40.675-54.647Z" fill="#2E9B85"/><path d="M246.848 199.647c9.005-16.456 13.972-35.396 13.972-55.578 0-19.872-5.278-38.501-14.282-54.647-3.416 19.561-9.625 38.191-18.319 55.268 8.694 17.077 15.214 35.396 18.629 54.957Z" fill="#80D3BD"/><path d="M228.219 144.689c-2.794 5.589-5.899 11.178-9.315 16.457-14.282 22.665-33.222 42.227-55.578 57.441-5.278 3.726-10.867 7.141-16.456 10.246 15.525 8.383 32.291 14.593 49.989 18.629 21.114-10.556 38.501-27.323 49.679-47.815-3.105-19.561-9.625-37.88-18.319-54.958Z" fill="#97E0CF"/><path d="M45.65 90.664C57.137 69.24 74.835 52.163 96.26 41.606 108.99 25.46 126.067 13.04 145.627 6.21 134.14 2.173 122.03.31 109.3.31c-24.218 0-46.263 8.073-64.272 21.424-6.52 4.658-12.73 10.247-18.008 16.456C9.943 57.752-.304 83.213.007 111.156c0 12.109 2.173 23.598 5.589 34.465 7.452-22.356 21.734-41.606 40.053-54.957Z" fill="#FF7A7F"/><path d="M46.581 200.889C37.577 184.433 32.3 165.492 32.3 145.31c0-19.871 4.968-38.501 13.661-54.957-18.63 13.662-32.601 32.912-40.053 55.268 7.452 22.666 22.045 41.916 40.674 55.268Z" fill="#E7666D"/><path d="M45.96 90.353C36.957 106.81 32.3 125.44 32.3 145.31c0 20.182 5.278 39.123 14.593 55.268 3.415-19.561 9.625-38.19 18.008-55.268-9.004-16.766-15.524-35.396-18.94-54.957Z" fill="#FFA5B1"/><path d="M130.414 218.897c-22.356-14.903-41.606-34.464-56.2-57.13-3.415-5.279-6.52-10.867-9.625-16.456-8.694 17.077-14.904 35.706-18.008 55.267 11.488 20.493 29.186 37.259 50.3 47.506h.31c17.698-4.347 34.465-10.868 49.679-19.251-5.589-2.794-11.178-6.21-16.456-9.936Z" fill="#FFD0D0"/><path d="M145.628 6.21C157.116 2.173 169.225 0 181.956 0c24.218 0 46.573 7.452 64.892 20.803 6.521 4.657 12.42 10.246 18.009 16.146 17.077 19.25 27.634 44.71 27.944 72.655 0 12.109-1.863 23.597-5.278 34.465-7.452-22.356-21.734-41.296-40.675-54.647-11.488-21.114-29.496-37.88-51.231-48.127-13.04-16.145-30.118-28.254-49.989-35.085Z" fill="#68C080"/><path d="M96.26 41.606c14.903-7.452 31.67-11.488 49.368-11.488s34.465 3.726 49.679 10.867C182.577 25.15 165.189 12.73 145.628 6.21 126.067 13.35 108.99 25.77 96.26 41.606Z" fill="#FF9752"/><path d="M145.939 60.546c15.214-8.694 31.98-15.214 49.368-19.25-14.904-7.142-31.981-11.178-49.679-10.868-17.698 0-34.465 4.347-49.368 11.489 17.698 4.036 34.464 10.246 49.679 18.63Z" fill="#FFB884"/><path d="M145.938 60.546c5.9 3.105 11.489 6.52 17.078 10.246 22.045 15.215 40.985 34.465 55.578 57.131 3.415 5.278 6.52 10.867 9.625 16.767 8.694-17.077 14.904-35.707 18.319-55.268-11.488-21.114-29.497-37.88-51.231-48.126-17.388 4.036-33.844 10.867-49.369 19.25Z" fill="#C4E2A0"/><path d="M64.9 145.621a225.974 225.974 0 0 1 9.315-16.767c14.282-22.665 32.912-42.537 54.957-57.751 5.278-3.726 11.178-7.141 16.767-10.557-15.525-8.383-31.981-14.904-49.68-18.94C74.837 52.163 57.139 69.24 45.96 90.353c3.415 19.561 9.936 38.191 18.94 55.268Z" fill="#EEC9A7"/><path d="M163.016 70.792c-5.589-3.726-11.178-7.141-17.077-10.246-5.899 3.105-11.488 6.83-16.767 10.557-22.045 15.214-40.674 35.085-54.957 57.751a145.439 145.439 0 0 0-9.315 16.767c2.795 5.589 6.21 11.178 9.626 16.456 14.593 22.666 33.843 42.227 56.199 57.131 5.278 3.726 10.867 6.831 16.456 9.935 5.589-3.104 11.178-6.52 16.456-10.246 22.045-15.214 40.985-34.775 55.578-57.441 3.416-5.278 6.52-10.867 9.315-16.456-2.795-5.589-6.21-11.178-9.625-16.767-14.904-22.666-33.844-42.227-55.889-57.44Z" fill="#fff"/></svg>
