<svg id="Layer_1" xmlns="http://www.w3.org/2000/svg" viewBox="0 0 308.93 314.24"><defs><style>.cls-1{fill:#f05252;}</style></defs><title>Wikimania2019_icon</title><path class="cls-1" d="M154.46,49.44C109.31,12.61,0,0,0,0V264.79s109.31,12.61,154.46,49.45c53.47-36.84,154.47-49.45,154.47-49.45V0S207.93,12.61,154.46,49.44Zm-12.61,55.24c6.33-18,13-34.93,13-34.93s6.58,16.63,12.85,34.4C183.57,91.33,200.29,79,200.29,79s-8.42,46.16-15.27,67.11c-.21.67-.43,1.32-.64,1.93a31.92,31.92,0,0,1-58.56,3.33,31.48,31.48,0,0,1-2.73-7.85C116.41,121.54,108.64,79,108.64,79S125.82,91.68,141.85,104.68Zm96.88,78.49c-.36,2.05-7.84,44.11-28.43,64.13-8.06,7.83-22.25,11.55-34.36,9.69,7.78-.21,15.77-3,20.74-7.84,15.9-15.46,21.67-47.93,21.95-49.51l.07-.06h-.06s0-.06,0-.06l-.07.06c-1.61-.05-34.58-.86-52.9,11.65-5.18,3.54-9.2,9.86-11.22,16.66-2-6.8-6-13.12-11.21-16.66-18.32-12.51-51.29-11.7-52.9-11.65l-.07-.06s0,0,0,.06h-.06l.07.06c.28,1.58,6,34.05,22,49.51,5,4.83,13,7.63,20.74,7.84-12.11,1.86-26.3-1.86-34.36-9.69-20.6-20-28.07-62.08-28.43-64.13l-.09-.07h.08a.25.25,0,0,1,0-.07l.1.07c2.08-.06,44.78-1.11,68.51,15.09,8,5.44,13.81,15.91,15.68,26.51,1.88-10.6,7.73-21.07,15.69-26.51,23.73-16.2,66.43-15.15,68.51-15.09l.1-.07s0,.06,0,.07h.08Z"/></svg>